# Blender 3.6.2
# www.blender.org
mtllib cofre.mtl
o s15-body.001
v 0.267084 -0.203846 0.772404
v 0.280419 -0.193620 0.760792
v 0.054288 -0.193620 0.760792
v 0.054288 -0.203846 0.772404
v 0.054288 -0.171081 0.739654
v 0.054288 -0.122006 0.644976
v 0.054288 -0.092930 0.567056
v 0.054288 -0.057930 0.393494
v 0.054288 -0.026349 0.163401
v 0.054288 -0.008292 -0.016876
v 0.054288 -0.005637 -0.040839
v 0.054288 -0.133258 0.669340
v 0.054288 -0.107589 0.606261
v 0.054288 -0.152170 0.704497
v 0.054288 -0.114617 0.625619
v 0.226470 -0.193620 0.760792
v 0.054288 -0.075430 0.480275
v 0.054288 -0.084180 0.523666
v 0.054288 -0.042140 0.278448
v 0.298587 -0.195232 0.755300
v 0.054288 -0.017320 0.073262
v 0.216317 -0.203846 0.772404
v 0.439315 -0.057930 0.393494
v 0.434178 -0.093349 0.567056
v 0.427463 -0.005633 -0.058391
v 0.270589 -0.171081 0.739654
v 0.322352 -0.152170 0.704497
v 0.436233 -0.026349 0.163401
v 0.365657 -0.133258 0.669340
v 0.388512 -0.122006 0.644976
v 0.401679 -0.114617 0.625619
v 0.431551 -0.008292 -0.016876
v 0.412337 -0.107589 0.606261
v 0.442297 -0.075433 0.493043
v 0.440899 -0.085683 0.531031
v 0.434898 -0.042140 0.278448
v 0.433892 -0.017320 0.073262
v 0.140379 -0.193620 0.760792
v 0.135302 -0.203846 0.772404
v 0.246802 -0.057930 0.393494
v 0.162438 -0.171081 0.739654
v 0.245260 -0.026349 0.163401
v 0.221400 -0.122006 0.644976
v 0.242920 -0.008292 -0.016876
v 0.248292 -0.075432 0.486659
v 0.247594 -0.084181 0.527349
v 0.244593 -0.042140 0.278448
v 0.244090 -0.017320 0.073262
v 0.244233 -0.092930 0.567056
v 0.240875 -0.005637 -0.040839
v 0.188320 -0.152170 0.704497
v 0.209973 -0.133258 0.669340
v 0.227983 -0.114617 0.625619
v 0.233312 -0.107589 0.606261
v 0.295452 -0.171081 0.739654
v 0.331301 -0.174474 0.739059
v 0.303713 -0.176758 0.744978
v 0.451579 -0.122006 0.644976
v 0.472399 -0.129618 0.651229
v 0.512597 -0.092930 0.567056
v 0.533579 -0.101108 0.571230
v 0.542578 -0.063592 0.392247
v 0.522506 -0.057930 0.393494
v 0.538197 -0.033119 0.166833
v 0.518301 -0.026349 0.163401
v 0.530967 -0.014577 -0.028075
v 0.512080 -0.008292 -0.016876
v 0.506700 -0.005633 -0.058391
v 0.525784 -0.013278 -0.057958
v 0.441046 -0.141230 0.676687
v 0.421033 -0.133258 0.669340
v 0.507287 -0.113262 0.609168
v 0.483636 -0.107589 0.606261
v 0.386862 -0.159193 0.710154
v 0.363663 -0.152170 0.704497
v 0.492033 -0.120475 0.630539
v 0.469306 -0.114617 0.625619
v 0.526531 -0.075434 0.496598
v 0.548464 -0.083334 0.485490
v 0.542667 -0.092327 0.537600
v 0.528649 -0.082873 0.553181
v 0.516614 -0.042140 0.278448
v 0.536978 -0.047564 0.277670
v 0.515182 -0.017320 0.073262
v 0.534644 -0.024758 0.076931
v 0.251510 -0.216084 0.765343
v 0.138264 -0.206617 0.757534
v 0.138169 -0.216084 0.765343
v 0.054288 -0.216084 0.765343
v 0.207847 -0.216084 0.765343
v -0.158508 -0.203846 0.772404
v -0.171843 -0.193620 0.760792
v -0.117895 -0.193620 0.760792
v -0.190012 -0.195232 0.755300
v -0.107741 -0.203846 0.772404
v -0.330740 -0.057930 0.393494
v -0.325603 -0.093349 0.567056
v -0.318888 -0.005633 -0.058391
v -0.162013 -0.171081 0.739654
v -0.213777 -0.152170 0.704497
v -0.327657 -0.026349 0.163401
v -0.257082 -0.133258 0.669340
v -0.279936 -0.122006 0.644976
v -0.293103 -0.114617 0.625619
v -0.322976 -0.008292 -0.016876
v -0.303762 -0.107589 0.606261
v -0.333721 -0.075433 0.493043
v -0.332324 -0.085683 0.531031
v -0.326323 -0.042140 0.278448
v -0.325317 -0.017320 0.073262
v -0.031804 -0.193620 0.760792
v -0.026727 -0.203846 0.772404
v -0.138226 -0.057930 0.393494
v -0.053863 -0.171081 0.739654
v -0.136685 -0.026349 0.163401
v -0.112824 -0.122006 0.644976
v -0.134344 -0.008292 -0.016876
v -0.139717 -0.075432 0.486659
v -0.139018 -0.084181 0.527349
v -0.136018 -0.042140 0.278448
v -0.135514 -0.017320 0.073262
v -0.135658 -0.092930 0.567056
v -0.132300 -0.005637 -0.040839
v -0.079745 -0.152170 0.704497
v -0.101397 -0.133258 0.669340
v -0.119408 -0.114617 0.625619
v -0.124737 -0.107589 0.606261
v -0.186877 -0.171081 0.739654
v -0.222725 -0.174474 0.739059
v -0.195137 -0.176758 0.744978
v -0.343004 -0.122006 0.644976
v -0.363823 -0.129618 0.651229
v -0.404022 -0.092930 0.567056
v -0.425003 -0.101108 0.571230
v -0.434003 -0.063592 0.392247
v -0.413931 -0.057930 0.393494
v -0.429621 -0.033119 0.166833
v -0.409725 -0.026349 0.163401
v -0.422391 -0.014577 -0.028075
v -0.403504 -0.008292 -0.016876
v -0.398125 -0.005633 -0.058391
v -0.417208 -0.013278 -0.057958
v -0.332471 -0.141230 0.676687
v -0.312458 -0.133258 0.669340
v -0.398711 -0.113262 0.609168
v -0.375061 -0.107589 0.606261
v -0.278286 -0.159193 0.710154
v -0.255087 -0.152170 0.704497
v -0.383458 -0.120475 0.630539
v -0.360731 -0.114617 0.625619
v -0.417955 -0.075434 0.496598
v -0.439888 -0.083334 0.485490
v -0.434092 -0.092327 0.537600
v -0.420073 -0.082873 0.553181
v -0.408038 -0.042140 0.278448
v -0.428403 -0.047564 0.277670
v -0.406606 -0.017320 0.073262
v -0.426069 -0.024758 0.076931
v -0.142935 -0.216084 0.765343
v -0.143182 -0.206617 0.757534
v -0.029688 -0.206617 0.757534
v -0.029594 -0.216084 0.765343
v -0.099460 -0.206617 0.757534
v -0.099272 -0.216084 0.765343
vn -0.0000 -0.7505 -0.6609
vn -0.0065 0.9802 0.1977
vn -0.0000 -0.8807 -0.4737
vn -0.0000 0.9907 0.1360
vn -0.0000 -0.9343 -0.3566
vn -0.0000 -0.9078 -0.4193
vn -0.0000 0.9950 0.0997
vn -0.0000 -0.9400 -0.3413
vn -0.0000 -0.9367 -0.3502
vn -0.0000 0.9939 0.1101
vn -0.0000 -0.6841 -0.7294
vn -0.0038 0.9803 0.1977
vn -0.0000 0.9803 0.1977
vn -0.0073 0.9848 0.1734
vn -0.0954 0.9619 0.2560
vn -0.0000 0.9980 0.0639
vn -0.0052 0.9783 0.2072
vn 0.0050 -0.9408 -0.3389
vn 0.0022 0.9765 0.2154
vn 0.0036 0.9776 0.2103
vn -0.0021 -0.9365 -0.3507
vn -0.0061 0.9828 0.1847
vn -0.0813 -0.7422 -0.6653
vn -0.1320 -0.8304 -0.5413
vn -0.1662 -0.8998 -0.4035
vn 0.3970 0.9073 0.1385
vn 0.2599 0.9562 0.1350
vn 0.3423 0.9360 0.0820
vn 0.3255 0.9454 0.0184
vn -0.0987 -0.8013 -0.5900
vn -0.1443 -0.9018 -0.4073
vn -0.0858 -0.8032 -0.5895
vn -0.1526 -0.8423 -0.5170
vn 0.4200 0.8853 0.1995
vn -0.2898 -0.9040 -0.3143
vn 0.2763 0.9539 0.1168
vn 0.3079 0.9477 0.0843
vn 0.1516 -0.4497 -0.8802
vn -0.0000 0.9828 0.1846
vn 0.0069 0.9777 0.2101
vn 0.0041 0.9766 0.2148
vn -0.0000 0.9859 0.1674
vn 0.0055 0.9914 0.1305
vn 0.2881 -0.5300 -0.7976
vn 0.1453 0.8733 0.4649
vn -0.0036 0.9780 0.2088
vn 0.0086 0.9655 0.2602
vn -0.0059 0.9980 0.0633
vn -0.0000 -0.9399 -0.3414
vn -0.0000 0.9849 0.1732
vn 0.0813 -0.7422 -0.6653
vn 0.1358 -0.8237 -0.5506
vn 0.2317 -0.8426 -0.4862
vn -0.2774 0.9433 0.1822
vn -0.2999 0.9455 0.1265
vn -0.3560 0.9312 0.0778
vn 0.1003 -0.7987 -0.5933
vn 0.1583 -0.8847 -0.4384
vn 0.0922 -0.7913 -0.6045
vn 0.1288 -0.8814 -0.4544
vn -0.6169 0.7830 0.0799
vn 0.6948 0.1342 -0.7065
vn -0.2598 0.9580 0.1213
vn -0.3439 0.9361 0.0735
vn -0.2975 -0.4014 -0.8662
vn -0.1516 -0.4497 -0.8802
vn -0.0069 0.9777 0.2101
vn -0.0041 0.9766 0.2148
vn -0.0055 0.9914 0.1305
vn -0.2881 -0.5300 -0.7976
vn -0.1453 0.8733 0.4649
vn 0.0036 0.9780 0.2088
vn -0.0086 0.9655 0.2602
vn 0.0059 0.9980 0.0633
vn -0.1358 -0.8237 -0.5506
vn -0.2317 -0.8426 -0.4862
vn 0.2774 0.9433 0.1822
vn 0.2999 0.9455 0.1265
vn 0.3560 0.9312 0.0778
vn 0.3722 0.9278 -0.0242
vn -0.1003 -0.7987 -0.5933
vn -0.1583 -0.8847 -0.4384
vn -0.0922 -0.7913 -0.6045
vn -0.1288 -0.8814 -0.4544
vn 0.6169 0.7830 0.0799
vn -0.6948 0.1342 -0.7065
vn 0.2598 0.9580 0.1213
vn 0.3439 0.9361 0.0735
vn 0.2975 -0.4014 -0.8662
vn 0.0065 0.9802 0.1977
vn 0.0038 0.9803 0.1977
vn 0.0073 0.9848 0.1734
vn 0.0954 0.9619 0.2560
vn 0.0052 0.9783 0.2072
vn -0.0050 -0.9408 -0.3389
vn -0.0022 0.9765 0.2154
vn -0.0036 0.9776 0.2103
vn 0.0021 -0.9365 -0.3507
vn 0.0061 0.9828 0.1847
vn 0.1320 -0.8304 -0.5413
vn 0.1662 -0.8998 -0.4035
vn -0.3970 0.9073 0.1385
vn -0.2599 0.9562 0.1350
vn -0.3423 0.9360 0.0820
vn -0.3255 0.9454 0.0184
vn 0.0987 -0.8013 -0.5900
vn 0.1443 -0.9018 -0.4073
vn 0.0858 -0.8032 -0.5895
vn 0.1526 -0.8423 -0.5170
vn -0.4200 0.8853 0.1995
vn 0.2898 -0.9040 -0.3143
vn -0.2763 0.9539 0.1168
vn -0.3079 0.9477 0.0843
vn -0.0000 -0.6364 -0.7714
vt 0.000000 0.000000
s 0
usemtl body
f 22/1/1 2/1/1 1/1/1
f 45/1/2 8/1/2 17/1/2
f 51/1/3 5/1/3 14/1/3
f 47/1/4 9/1/4 19/1/4
f 52/1/3 14/1/3 12/1/3
f 53/1/5 6/1/5 15/1/5
f 43/1/6 12/1/6 6/1/6
f 48/1/7 10/1/7 21/1/7
f 54/1/8 15/1/8 13/1/8
f 49/1/9 13/1/9 7/1/9
f 44/1/10 11/1/10 10/1/10
f 41/1/11 3/1/11 5/1/11
f 84/1/7 32/1/7 37/1/7
f 46/1/12 17/1/12 18/1/12
f 49/1/13 18/1/13 7/1/13
f 40/1/4 19/1/4 8/1/4
f 82/1/4 28/1/4 36/1/4
f 78/1/14 23/1/14 34/1/14
f 81/1/15 34/1/15 35/1/15
f 77/1/5 30/1/5 31/1/5
f 73/1/8 31/1/8 33/1/8
f 75/1/3 26/1/3 27/1/3
f 42/1/7 21/1/7 9/1/7
f 65/1/7 37/1/7 28/1/7
f 71/1/3 27/1/3 29/1/3
f 67/1/16 25/1/16 32/1/16
f 63/1/4 36/1/4 23/1/4
f 60/1/17 35/1/17 24/1/17
f 60/1/18 33/1/18 24/1/18
f 58/1/6 29/1/6 30/1/6
f 39/1/1 16/1/1 22/1/1
f 4/1/1 38/1/1 39/1/1
f 28/1/7 48/1/7 42/1/7
f 23/1/4 47/1/4 40/1/4
f 24/1/19 46/1/19 49/1/19
f 35/1/20 45/1/20 46/1/20
f 26/1/11 38/1/11 41/1/11
f 32/1/10 50/1/10 44/1/10
f 24/1/21 54/1/21 49/1/21
f 33/1/8 53/1/8 54/1/8
f 37/1/7 44/1/7 48/1/7
f 30/1/6 52/1/6 43/1/6
f 31/1/5 43/1/5 53/1/5
f 29/1/3 51/1/3 52/1/3
f 36/1/4 42/1/4 47/1/4
f 27/1/3 41/1/3 51/1/3
f 34/1/22 40/1/22 45/1/22
f 55/1/23 56/1/23 57/1/23
f 71/1/24 59/1/24 70/1/24
f 73/1/25 61/1/25 72/1/25
f 79/1/26 63/1/26 78/1/26
f 83/1/27 65/1/27 82/1/27
f 85/1/28 67/1/28 84/1/28
f 66/1/29 68/1/29 67/1/29
f 75/1/30 70/1/30 74/1/30
f 77/1/31 72/1/31 76/1/31
f 55/1/32 74/1/32 56/1/32
f 58/1/33 76/1/33 59/1/33
f 78/1/34 80/1/34 79/1/34
f 60/1/35 80/1/35 61/1/35
f 62/1/36 82/1/36 63/1/36
f 64/1/37 84/1/37 65/1/37
f 2/1/11 16/1/11 26/1/11
f 94/1/38 129/1/38 130/1/38
f 95/1/1 92/1/1 93/1/1
f 118/1/39 8/1/39 113/1/39
f 124/1/3 5/1/3 114/1/3
f 120/1/4 9/1/4 115/1/4
f 125/1/3 14/1/3 124/1/3
f 126/1/5 6/1/5 116/1/5
f 116/1/6 12/1/6 125/1/6
f 121/1/7 10/1/7 117/1/7
f 127/1/8 15/1/8 126/1/8
f 122/1/9 13/1/9 127/1/9
f 117/1/10 11/1/10 123/1/10
f 114/1/11 3/1/11 111/1/11
f 157/1/7 105/1/7 140/1/7
f 119/1/40 17/1/40 118/1/40
f 122/1/41 18/1/41 119/1/41
f 113/1/4 19/1/4 120/1/4
f 155/1/4 101/1/4 138/1/4
f 151/1/42 96/1/42 136/1/42
f 154/1/43 107/1/43 151/1/43
f 150/1/5 103/1/5 131/1/5
f 146/1/8 104/1/8 150/1/8
f 148/1/3 99/1/3 128/1/3
f 91/1/44 94/1/44 92/1/44
f 115/1/7 21/1/7 121/1/7
f 138/1/7 110/1/7 157/1/7
f 144/1/3 100/1/3 148/1/3
f 140/1/16 98/1/16 141/1/16
f 136/1/4 109/1/4 155/1/4
f 133/1/45 108/1/45 154/1/45
f 133/1/9 106/1/9 146/1/9
f 131/1/6 102/1/6 144/1/6
f 112/1/1 93/1/1 111/1/1
f 4/1/1 111/1/1 3/1/1
f 101/1/7 121/1/7 110/1/7
f 96/1/4 120/1/4 109/1/4
f 97/1/46 119/1/46 108/1/46
f 108/1/47 118/1/47 107/1/47
f 99/1/11 111/1/11 93/1/11
f 105/1/48 123/1/48 98/1/48
f 97/1/49 127/1/49 106/1/49
f 106/1/8 126/1/8 104/1/8
f 110/1/7 117/1/7 105/1/7
f 103/1/6 125/1/6 102/1/6
f 104/1/5 116/1/5 103/1/5
f 102/1/3 124/1/3 100/1/3
f 109/1/4 115/1/4 101/1/4
f 100/1/3 114/1/3 99/1/3
f 107/1/50 113/1/50 96/1/50
f 128/1/51 130/1/51 129/1/51
f 144/1/52 132/1/52 131/1/52
f 146/1/53 134/1/53 133/1/53
f 152/1/54 136/1/54 135/1/54
f 156/1/55 138/1/55 137/1/55
f 158/1/56 140/1/56 139/1/56
f 148/1/57 143/1/57 144/1/57
f 150/1/58 145/1/58 146/1/58
f 128/1/59 147/1/59 148/1/59
f 131/1/60 149/1/60 150/1/60
f 151/1/61 153/1/61 154/1/61
f 133/1/62 153/1/62 154/1/62
f 135/1/63 155/1/63 156/1/63
f 137/1/64 157/1/64 158/1/64
f 99/1/11 93/1/11 92/1/11
f 20/1/65 2/1/65 57/1/65
f 57/1/66 56/1/66 20/1/66
f 22/1/1 16/1/1 2/1/1
f 45/1/39 40/1/39 8/1/39
f 51/1/3 41/1/3 5/1/3
f 47/1/4 42/1/4 9/1/4
f 52/1/3 51/1/3 14/1/3
f 53/1/5 43/1/5 6/1/5
f 43/1/6 52/1/6 12/1/6
f 48/1/7 44/1/7 10/1/7
f 54/1/8 53/1/8 15/1/8
f 49/1/9 54/1/9 13/1/9
f 44/1/10 50/1/10 11/1/10
f 41/1/11 38/1/11 3/1/11
f 84/1/7 67/1/7 32/1/7
f 46/1/67 45/1/67 17/1/67
f 49/1/68 46/1/68 18/1/68
f 40/1/4 47/1/4 19/1/4
f 82/1/4 65/1/4 28/1/4
f 78/1/42 63/1/42 23/1/42
f 81/1/69 78/1/69 34/1/69
f 77/1/5 58/1/5 30/1/5
f 73/1/8 77/1/8 31/1/8
f 75/1/3 55/1/3 26/1/3
f 1/1/70 2/1/70 20/1/70
f 42/1/7 48/1/7 21/1/7
f 65/1/7 84/1/7 37/1/7
f 71/1/3 75/1/3 27/1/3
f 67/1/16 68/1/16 25/1/16
f 63/1/4 82/1/4 36/1/4
f 60/1/71 81/1/71 35/1/71
f 60/1/9 73/1/9 33/1/9
f 58/1/6 71/1/6 29/1/6
f 39/1/1 38/1/1 16/1/1
f 4/1/1 3/1/1 38/1/1
f 28/1/7 37/1/7 48/1/7
f 23/1/4 36/1/4 47/1/4
f 24/1/72 35/1/72 46/1/72
f 35/1/73 34/1/73 45/1/73
f 26/1/11 16/1/11 38/1/11
f 32/1/74 25/1/74 50/1/74
f 24/1/49 33/1/49 54/1/49
f 33/1/8 31/1/8 53/1/8
f 37/1/7 32/1/7 44/1/7
f 30/1/6 29/1/6 52/1/6
f 31/1/5 30/1/5 43/1/5
f 29/1/3 27/1/3 51/1/3
f 36/1/4 28/1/4 42/1/4
f 27/1/3 26/1/3 41/1/3
f 34/1/50 23/1/50 40/1/50
f 71/1/75 58/1/75 59/1/75
f 73/1/76 60/1/76 61/1/76
f 79/1/77 62/1/77 63/1/77
f 83/1/78 64/1/78 65/1/78
f 85/1/79 66/1/79 67/1/79
f 66/1/80 69/1/80 68/1/80
f 75/1/81 71/1/81 70/1/81
f 77/1/82 73/1/82 72/1/82
f 55/1/83 75/1/83 74/1/83
f 58/1/84 77/1/84 76/1/84
f 78/1/85 81/1/85 80/1/85
f 60/1/86 81/1/86 80/1/86
f 62/1/87 83/1/87 82/1/87
f 64/1/88 85/1/88 84/1/88
f 26/1/11 55/1/11 2/1/11
f 55/1/11 57/1/11 2/1/11
f 130/1/89 92/1/89 94/1/89
f 95/1/1 91/1/1 92/1/1
f 118/1/90 17/1/90 8/1/90
f 124/1/3 14/1/3 5/1/3
f 120/1/4 19/1/4 9/1/4
f 125/1/3 12/1/3 14/1/3
f 126/1/5 15/1/5 6/1/5
f 116/1/6 6/1/6 12/1/6
f 121/1/7 21/1/7 10/1/7
f 127/1/8 13/1/8 15/1/8
f 122/1/9 7/1/9 13/1/9
f 117/1/10 10/1/10 11/1/10
f 114/1/11 5/1/11 3/1/11
f 157/1/7 110/1/7 105/1/7
f 119/1/91 18/1/91 17/1/91
f 122/1/13 7/1/13 18/1/13
f 113/1/4 8/1/4 19/1/4
f 155/1/4 109/1/4 101/1/4
f 151/1/92 107/1/92 96/1/92
f 154/1/93 108/1/93 107/1/93
f 150/1/5 104/1/5 103/1/5
f 146/1/8 106/1/8 104/1/8
f 148/1/3 100/1/3 99/1/3
f 115/1/7 9/1/7 21/1/7
f 138/1/7 101/1/7 110/1/7
f 144/1/3 102/1/3 100/1/3
f 140/1/16 105/1/16 98/1/16
f 136/1/4 96/1/4 109/1/4
f 133/1/94 97/1/94 108/1/94
f 133/1/95 97/1/95 106/1/95
f 131/1/6 103/1/6 102/1/6
f 112/1/1 95/1/1 93/1/1
f 4/1/1 112/1/1 111/1/1
f 101/1/7 115/1/7 121/1/7
f 96/1/4 113/1/4 120/1/4
f 97/1/96 122/1/96 119/1/96
f 108/1/97 119/1/97 118/1/97
f 99/1/11 114/1/11 111/1/11
f 105/1/10 117/1/10 123/1/10
f 97/1/98 122/1/98 127/1/98
f 106/1/8 127/1/8 126/1/8
f 110/1/7 121/1/7 117/1/7
f 103/1/6 116/1/6 125/1/6
f 104/1/5 126/1/5 116/1/5
f 102/1/3 125/1/3 124/1/3
f 109/1/4 120/1/4 115/1/4
f 100/1/3 124/1/3 114/1/3
f 107/1/99 118/1/99 113/1/99
f 144/1/100 143/1/100 132/1/100
f 146/1/101 145/1/101 134/1/101
f 152/1/102 151/1/102 136/1/102
f 156/1/103 155/1/103 138/1/103
f 158/1/104 157/1/104 140/1/104
f 139/1/105 140/1/105 141/1/105
f 148/1/106 147/1/106 143/1/106
f 150/1/107 149/1/107 145/1/107
f 128/1/108 129/1/108 147/1/108
f 131/1/109 132/1/109 149/1/109
f 151/1/110 152/1/110 153/1/110
f 133/1/111 134/1/111 153/1/111
f 135/1/112 136/1/112 155/1/112
f 137/1/113 138/1/113 157/1/113
f 130/1/11 128/1/11 92/1/11
f 128/1/11 99/1/11 92/1/11
usemtl Material.006
f 162/1/114 164/1/114 163/1/114
f 89/1/114 162/1/114 161/1/114
l 88 89
l 86 90
l 90 88
l 139 142
l 159 164
l 87 89
l 160 164
