# Blender 3.6.2
# www.blender.org
mtllib cola.mtl
o Plano
v 0.161867 -0.048670 -0.092117
v 0.094185 -0.064458 0.111511
v -0.028712 0.114379 0.124547
v 0.038787 0.130253 -0.079148
v -0.569516 -0.051554 -0.108117
v -0.595831 -0.057812 -0.028419
v -0.271825 -0.147712 0.058807
v -0.204144 -0.131924 -0.144820
v -0.305051 0.037427 0.082609
v -0.237524 0.053261 -0.120966
v -0.786109 0.073818 -0.064847
v -0.608979 0.014744 -0.019015
v -0.789062 0.063046 -0.066749
v -0.582510 0.020955 -0.098765
v -0.784826 0.064046 -0.079708
v -0.781843 0.074779 -0.077686
vn -0.7951 -0.5242 -0.3049
vn -0.7951 -0.5245 -0.3045
vn 0.2265 0.9623 0.1504
vn 0.2267 0.9623 0.1500
vn -0.2220 0.9750 0.0018
vn 0.2665 -0.9637 0.0134
vn 0.2664 -0.9638 0.0132
vn 0.1083 0.1460 -0.9833
vn 0.1084 0.1461 -0.9833
vn -0.1083 -0.1462 0.9833
vn -0.1082 -0.1457 0.9834
vn 0.2930 0.1630 -0.9421
vn 0.2929 0.1630 -0.9422
vn 0.2929 0.1629 -0.9422
vn 0.0901 -0.9948 -0.0476
vn 0.0901 -0.9948 -0.0475
vn 0.3008 0.1745 -0.9376
vn 0.3009 0.1748 -0.9375
vn 0.0744 -0.1142 0.9907
vn 0.0745 -0.1144 0.9906
vn 0.9119 -0.3009 0.2792
vn 0.9119 -0.3008 0.2792
vn 0.0668 -0.1256 0.9898
vn 0.4839 0.8454 0.2262
vn 0.4838 0.8454 0.2262
vn -0.2733 -0.9478 -0.1645
vn -0.2732 -0.9478 -0.1642
vt 1.000000 0.000000
vt 1.000000 1.000000
vt 0.000000 1.000000
vt 0.000000 0.000000
s 0
usemtl Goddard_None
f 1/1/1 2/2/1 3/3/1
f 3/3/2 4/4/2 1/1/2
f 5/1/3 6/2/3 7/2/3
f 7/2/4 8/1/4 5/1/4
f 8/1/5 7/2/5 2/2/5
f 2/2/5 1/1/5 8/1/5
f 9/3/6 10/4/6 4/4/6
f 4/4/7 3/3/7 9/3/7
f 7/2/8 9/3/8 3/3/8
f 3/3/9 2/2/9 7/2/9
f 10/4/10 8/1/10 1/1/10
f 1/1/11 4/4/11 10/4/11
f 11/3/12 12/3/13 6/2/13
f 6/2/14 13/2/14 11/3/14
f 12/3/15 14/4/15 10/4/15
f 10/4/16 9/3/16 12/3/16
f 9/3/17 7/2/17 6/2/17
f 6/2/18 12/3/18 9/3/18
f 5/1/19 8/1/19 10/4/19
f 10/4/20 14/4/20 5/1/20
f 11/3/21 13/2/21 15/1/21
f 15/1/22 16/4/22 11/3/22
f 14/4/23 16/4/23 15/1/23
f 15/1/23 5/1/23 14/4/23
f 13/2/24 6/2/24 5/1/24
f 5/1/25 15/1/25 13/2/25
f 16/4/26 14/4/26 12/3/26
f 12/3/27 11/3/27 16/4/27
