# Blender 3.6.2
# www.blender.org
mtllib cofre.mtl
o s15-body.001
v 0.237253 -0.173656 0.555896
v 0.250588 -0.163430 0.544283
v 0.024457 -0.163430 0.544283
v 0.024457 -0.173656 0.555896
v 0.024457 -0.140891 0.523146
v 0.024457 -0.091816 0.428467
v 0.024457 -0.062741 0.350548
v 0.024457 -0.027741 0.176986
v 0.024457 0.003841 -0.053107
v 0.024457 0.021898 -0.233385
v 0.024457 0.024553 -0.257347
v 0.024457 -0.103069 0.452831
v 0.024457 -0.077399 0.389753
v 0.024457 -0.121980 0.487989
v 0.024457 -0.084427 0.409110
v 0.196640 -0.163430 0.544283
v 0.024457 -0.045241 0.263767
v 0.024457 -0.053991 0.307158
v 0.024457 -0.011950 0.061939
v 0.268757 -0.165043 0.538791
v 0.024457 0.012869 -0.143246
v 0.186486 -0.173656 0.555896
v 0.409485 -0.027741 0.176986
v 0.404348 -0.063160 0.350548
v 0.397633 0.024556 -0.274899
v 0.240758 -0.140891 0.523146
v 0.292522 -0.121980 0.487989
v 0.406402 0.003841 -0.053107
v 0.335827 -0.103069 0.452831
v 0.358681 -0.091816 0.428467
v 0.371848 -0.084427 0.409110
v 0.401721 0.021898 -0.233385
v 0.382506 -0.077399 0.389753
v 0.412466 -0.045243 0.276534
v 0.411069 -0.055493 0.314523
v 0.405068 -0.011950 0.061939
v 0.404061 0.012869 -0.143246
v 0.110548 -0.163430 0.544283
v 0.105472 -0.173656 0.555896
v 0.216971 -0.027741 0.176986
v 0.132608 -0.140891 0.523146
v 0.215430 0.003841 -0.053107
v 0.191569 -0.091816 0.428467
v 0.213089 0.021898 -0.233385
v 0.218462 -0.045242 0.270151
v 0.217763 -0.053992 0.310841
v 0.214762 -0.011950 0.061939
v 0.214259 0.012869 -0.143246
v 0.214402 -0.062741 0.350548
v 0.211045 0.024553 -0.257347
v 0.158489 -0.121980 0.487989
v 0.180142 -0.103069 0.452831
v 0.198153 -0.084427 0.409110
v 0.203482 -0.077399 0.389753
v 0.265622 -0.140891 0.523146
v 0.301470 -0.144284 0.522550
v 0.273882 -0.146568 0.528470
v 0.421749 -0.091816 0.428467
v 0.442568 -0.099428 0.434721
v 0.482767 -0.062741 0.350548
v 0.503748 -0.070918 0.354721
v 0.512747 -0.033402 0.175738
v 0.492676 -0.027741 0.176986
v 0.508366 -0.002929 -0.049675
v 0.488470 0.003841 -0.053107
v 0.501136 0.015613 -0.244584
v 0.482249 0.021898 -0.233385
v 0.476869 0.024556 -0.274899
v 0.495953 0.016912 -0.274466
v 0.411216 -0.111040 0.460179
v 0.391202 -0.103069 0.452831
v 0.477456 -0.083072 0.392660
v 0.453805 -0.077399 0.389753
v 0.357031 -0.129004 0.493646
v 0.333832 -0.121980 0.487989
v 0.462203 -0.090286 0.414031
v 0.439476 -0.084427 0.409110
v 0.496700 -0.045244 0.280090
v 0.518633 -0.053145 0.268982
v 0.512837 -0.062138 0.321091
v 0.498818 -0.052683 0.336673
v 0.486783 -0.011950 0.061939
v 0.507147 -0.017375 0.061162
v 0.485351 0.012869 -0.143246
v 0.504814 0.005431 -0.139578
v 0.221679 -0.185894 0.548835
v 0.108433 -0.176427 0.541026
v 0.108339 -0.185894 0.548835
v 0.024457 -0.185894 0.548835
v 0.178016 -0.185894 0.548835
v -0.188339 -0.173656 0.555896
v -0.201674 -0.163430 0.544283
v -0.147726 -0.163430 0.544283
v -0.219842 -0.165043 0.538791
v -0.137572 -0.173656 0.555896
v -0.360571 -0.027741 0.176986
v -0.355433 -0.063160 0.350548
v -0.348718 0.024556 -0.274899
v -0.191844 -0.140891 0.523146
v -0.243607 -0.121980 0.487989
v -0.357488 0.003841 -0.053107
v -0.286913 -0.103069 0.452831
v -0.309767 -0.091816 0.428467
v -0.322934 -0.084427 0.409110
v -0.352807 0.021898 -0.233385
v -0.333592 -0.077399 0.389753
v -0.363552 -0.045243 0.276534
v -0.362155 -0.055493 0.314523
v -0.356154 -0.011950 0.061939
v -0.355147 0.012869 -0.143246
v -0.061634 -0.163430 0.544283
v -0.056557 -0.173656 0.555896
v -0.168057 -0.027741 0.176986
v -0.083693 -0.140891 0.523146
v -0.166515 0.003841 -0.053107
v -0.142655 -0.091816 0.428467
v -0.164175 0.021898 -0.233385
v -0.169547 -0.045242 0.270151
v -0.168849 -0.053992 0.310841
v -0.165848 -0.011950 0.061939
v -0.165345 0.012869 -0.143246
v -0.165488 -0.062741 0.350548
v -0.162131 0.024553 -0.257347
v -0.109575 -0.121980 0.487989
v -0.131228 -0.103069 0.452831
v -0.149238 -0.084427 0.409110
v -0.154568 -0.077399 0.389753
v -0.216707 -0.140891 0.523146
v -0.252556 -0.144284 0.522550
v -0.224968 -0.146568 0.528470
v -0.372835 -0.091816 0.428467
v -0.393654 -0.099428 0.434721
v -0.433853 -0.062741 0.350548
v -0.454834 -0.070918 0.354721
v -0.463833 -0.033402 0.175738
v -0.443762 -0.027741 0.176986
v -0.459452 -0.002929 -0.049675
v -0.439556 0.003841 -0.053107
v -0.452222 0.015613 -0.244584
v -0.433335 0.021898 -0.233385
v -0.427955 0.024556 -0.274899
v -0.447039 0.016912 -0.274466
v -0.362301 -0.111040 0.460179
v -0.342288 -0.103069 0.452831
v -0.428542 -0.083072 0.392660
v -0.404891 -0.077399 0.389753
v -0.308117 -0.129004 0.493646
v -0.284918 -0.121980 0.487989
v -0.413289 -0.090286 0.414031
v -0.390562 -0.084427 0.409110
v -0.447786 -0.045244 0.280090
v -0.469719 -0.053145 0.268982
v -0.463923 -0.062138 0.321091
v -0.449904 -0.052683 0.336673
v -0.437869 -0.011950 0.061939
v -0.458233 -0.017375 0.061162
v -0.436437 0.012869 -0.143246
v -0.455900 0.005431 -0.139578
v -0.172765 -0.185894 0.548835
v -0.173013 -0.176427 0.541026
v -0.059519 -0.176427 0.541026
v -0.059424 -0.185894 0.548835
v -0.129291 -0.176427 0.541026
v -0.129102 -0.185894 0.548835
vn -0.0000 -0.7505 -0.6609
vn -0.0065 0.9802 0.1977
vn -0.0000 -0.8807 -0.4737
vn -0.0000 0.9907 0.1360
vn -0.0000 -0.9343 -0.3566
vn -0.0000 -0.9078 -0.4193
vn -0.0000 0.9950 0.0997
vn -0.0000 -0.9400 -0.3413
vn -0.0000 -0.9367 -0.3502
vn -0.0000 0.9939 0.1101
vn -0.0000 -0.6841 -0.7294
vn -0.0038 0.9803 0.1977
vn -0.0000 0.9803 0.1977
vn -0.0073 0.9848 0.1734
vn -0.0954 0.9619 0.2560
vn -0.0000 0.9980 0.0639
vn -0.0052 0.9783 0.2072
vn 0.0050 -0.9408 -0.3389
vn 0.0022 0.9765 0.2154
vn 0.0036 0.9776 0.2103
vn -0.0021 -0.9365 -0.3507
vn -0.0061 0.9828 0.1847
vn -0.0813 -0.7422 -0.6653
vn -0.1320 -0.8304 -0.5413
vn -0.1662 -0.8998 -0.4035
vn 0.3970 0.9073 0.1385
vn 0.2599 0.9562 0.1350
vn 0.3423 0.9360 0.0820
vn 0.3255 0.9454 0.0184
vn -0.0987 -0.8013 -0.5900
vn -0.1443 -0.9018 -0.4073
vn -0.0858 -0.8032 -0.5895
vn -0.1526 -0.8422 -0.5170
vn 0.4200 0.8853 0.1995
vn -0.2898 -0.9040 -0.3143
vn 0.2763 0.9539 0.1168
vn 0.3079 0.9477 0.0843
vn 0.1516 -0.4497 -0.8802
vn -0.0000 0.9828 0.1846
vn 0.0069 0.9777 0.2101
vn 0.0041 0.9766 0.2148
vn -0.0000 0.9859 0.1674
vn 0.0055 0.9914 0.1305
vn 0.2881 -0.5300 -0.7976
vn 0.1453 0.8733 0.4649
vn -0.0036 0.9780 0.2088
vn 0.0086 0.9655 0.2602
vn -0.0059 0.9980 0.0633
vn -0.0000 -0.9399 -0.3414
vn -0.0000 0.9849 0.1732
vn 0.0813 -0.7422 -0.6653
vn 0.1358 -0.8237 -0.5506
vn 0.2317 -0.8426 -0.4862
vn -0.2774 0.9433 0.1822
vn -0.2999 0.9455 0.1265
vn -0.3560 0.9312 0.0778
vn 0.1003 -0.7987 -0.5933
vn 0.1583 -0.8847 -0.4384
vn 0.0922 -0.7913 -0.6045
vn 0.1288 -0.8814 -0.4544
vn -0.6169 0.7830 0.0799
vn 0.6948 0.1342 -0.7065
vn -0.2598 0.9580 0.1213
vn -0.3439 0.9361 0.0735
vn -0.2975 -0.4014 -0.8662
vn -0.1516 -0.4497 -0.8802
vn -0.0069 0.9777 0.2101
vn -0.0041 0.9766 0.2148
vn -0.0055 0.9914 0.1305
vn -0.2881 -0.5300 -0.7976
vn -0.1453 0.8733 0.4649
vn 0.0036 0.9780 0.2088
vn -0.0086 0.9655 0.2602
vn 0.0059 0.9980 0.0633
vn -0.1358 -0.8237 -0.5506
vn -0.2317 -0.8426 -0.4862
vn 0.2774 0.9433 0.1822
vn 0.2999 0.9455 0.1265
vn 0.3560 0.9312 0.0778
vn 0.3722 0.9278 -0.0242
vn -0.1003 -0.7987 -0.5933
vn -0.1583 -0.8847 -0.4384
vn -0.0922 -0.7913 -0.6045
vn -0.1288 -0.8814 -0.4544
vn 0.6169 0.7830 0.0799
vn -0.6948 0.1342 -0.7065
vn 0.2598 0.9580 0.1213
vn 0.3439 0.9361 0.0735
vn 0.2975 -0.4014 -0.8662
vn 0.0065 0.9802 0.1977
vn 0.0038 0.9803 0.1977
vn 0.0073 0.9848 0.1734
vn 0.0954 0.9619 0.2560
vn 0.0052 0.9783 0.2072
vn -0.0050 -0.9408 -0.3389
vn -0.0022 0.9765 0.2154
vn -0.0036 0.9776 0.2103
vn 0.0021 -0.9365 -0.3507
vn 0.0061 0.9828 0.1847
vn 0.1320 -0.8304 -0.5413
vn 0.1662 -0.8998 -0.4035
vn -0.3970 0.9073 0.1385
vn -0.2599 0.9562 0.1350
vn -0.3423 0.9360 0.0820
vn -0.3255 0.9454 0.0184
vn 0.0987 -0.8013 -0.5900
vn 0.1443 -0.9018 -0.4073
vn 0.0858 -0.8032 -0.5895
vn 0.1526 -0.8422 -0.5170
vn -0.4200 0.8853 0.1995
vn 0.2898 -0.9040 -0.3143
vn -0.2763 0.9539 0.1168
vn -0.3079 0.9477 0.0843
vn -0.0000 -0.6364 -0.7714
vt 0.696841 0.038867
vt 0.768726 0.055535
vt 0.753468 0.038358
vt 0.733545 0.393000
vt 0.517805 0.498504
vt 0.517856 0.400071
vt 0.666197 0.134976
vt 0.517131 0.091186
vt 0.517326 0.135507
vt 0.729517 0.627905
vt 0.517378 0.757282
vt 0.517606 0.627817
vt 0.690418 0.179273
vt 0.517494 0.179814
vt 0.710602 0.232077
vt 0.517590 0.209588
vt 0.517653 0.232569
vt 0.703215 0.209066
vt 0.729019 0.858368
vt 0.517142 0.959604
vt 0.517236 0.858390
vt 0.716592 0.254956
vt 0.517707 0.255409
vt 0.728852 0.301470
vt 0.517785 0.301823
vt 0.727823 0.959467
vt 0.517129 0.986555
vt 0.637259 0.090707
vt 0.516968 0.056873
vt 1.031085 0.857832
vt 0.938243 0.958917
vt 0.940566 0.858033
vt 0.732690 0.346697
vt 0.517841 0.350934
vt 0.731960 0.498526
vt 1.032537 0.627824
vt 0.942973 0.757132
vt 0.941462 0.627824
vt 1.043707 0.382083
vt 0.946327 0.498398
vt 0.949767 0.385636
vt 1.046378 0.318633
vt 0.948132 0.341733
vt 0.979021 0.230961
vt 0.889103 0.208423
vt 0.903848 0.231403
vt 0.995200 0.253790
vt 0.915820 0.254265
vt 0.861216 0.134280
vt 0.757660 0.090238
vt 0.815304 0.134432
vt 0.730270 0.757339
vt 1.034202 0.757080
vt 0.925099 0.178412
vt 0.863578 0.178667
vt 1.027798 0.958488
vt 0.933893 1.005369
vt 1.038965 0.498492
vt 1.027806 0.300263
vt 0.940423 0.300661
vt 0.959128 0.208059
vt 0.606867 0.039300
vt 0.708255 0.055996
vt 0.516885 0.039690
vt 0.612584 0.056458
vt 0.725585 0.986387
vt 0.785301 0.090177
vt 0.825223 0.088527
vt 0.794542 0.081656
vt 0.982636 0.197801
vt 0.947558 0.166755
vt 1.051983 0.291998
vt 1.021955 0.248056
vt 1.070355 0.392962
vt 1.056050 0.627881
vt 1.054132 0.852936
vt 1.050287 0.970305
vt 1.022294 1.004817
vt 0.887181 0.124657
vt 1.004605 0.223071
vt 1.064857 0.333923
vt 1.063955 0.330250
vt 1.062218 0.498990
vt 1.057432 0.752402
vt 0.244627 0.060999
vt 0.210190 0.091916
vt 0.240473 0.084647
vt 0.337049 0.040784
vt 0.265712 0.058351
vt 0.325887 0.058002
vt 0.303005 0.392683
vt 0.304055 0.497932
vt 0.368732 0.136185
vt 0.397123 0.091799
vt 0.305701 0.627215
vt 0.304297 0.756730
vt 0.345038 0.180463
vt 0.325369 0.233058
vt 0.332552 0.210164
vt 0.305203 0.857932
vt 0.306182 0.959248
vt 0.319552 0.255792
vt 0.307613 0.301834
vt 0.308392 0.986239
vt 0.421383 0.057380
vt 0.001845 0.856532
vt 0.094959 0.958331
vt 0.004953 0.957733
vt 0.303874 0.346675
vt 0.001430 0.624878
vt 0.090830 0.755625
vt -0.000981 0.755136
vt -0.004515 0.378161
vt 0.090249 0.496169
vt -0.003471 0.494290
vt 0.003019 0.322078
vt 0.089975 0.383993
vt 0.061113 0.234498
vt 0.148681 0.210919
vt 0.080134 0.211719
vt 0.045770 0.257088
vt 0.134487 0.233613
vt 0.175278 0.137631
vt 0.277144 0.092635
vt 0.249758 0.092955
vt 0.280639 0.041054
vt 0.092862 0.856992
vt 0.113017 0.182044
vt 0.220557 0.137145
vt 0.099248 1.004997
vt 0.010407 1.004307
vt 0.093250 0.625794
vt 0.014198 0.302175
vt 0.092557 0.339397
vt 0.123049 0.256078
vt 0.173436 0.181366
vt 0.426912 0.040178
vt 0.099554 0.300578
vt 0.056921 0.202149
vt -0.007902 0.294735
vt -0.031750 0.386510
vt -0.026982 0.494265
vt -0.022306 0.624725
vt -0.024366 0.750326
vt -0.021330 0.851551
vt -0.017676 0.969572
vt 0.090744 0.170972
vt 0.019819 0.252086
vt 0.149522 0.128527
vt 0.036030 0.227373
vt -0.018281 0.328361
vt 0.789996 0.057890
vt 1.045201 1.003773
vt 0.074365 0.111922
vt 0.000000 0.000000
s 0
usemtl body
f 22/1/1 2/2/1 1/3/1
f 45/4/2 8/5/2 17/6/2
f 51/7/3 5/8/3 14/9/3
f 47/10/4 9/11/4 19/12/4
f 52/13/3 14/9/3 12/14/3
f 53/15/5 6/16/5 15/17/5
f 43/18/6 12/14/6 6/16/6
f 48/19/7 10/20/7 21/21/7
f 54/22/8 15/17/8 13/23/8
f 49/24/9 13/23/9 7/25/9
f 44/26/10 11/27/10 10/20/10
f 41/28/11 3/29/11 5/8/11
f 84/30/7 32/31/7 37/32/7
f 46/33/12 17/6/12 18/34/12
f 49/24/13 18/34/13 7/25/13
f 40/35/4 19/12/4 8/5/4
f 82/36/4 28/37/4 36/38/4
f 78/39/14 23/40/14 34/41/14
f 81/42/15 34/41/15 35/43/15
f 77/44/5 30/45/5 31/46/5
f 73/47/8 31/46/8 33/48/8
f 75/49/3 26/50/3 27/51/3
f 42/52/7 21/21/7 9/11/7
f 65/53/7 37/32/7 28/37/7
f 71/54/3 27/51/3 29/55/3
f 67/56/16 25/57/16 32/31/16
f 63/58/4 36/38/4 23/40/4
f 60/59/17 35/43/17 24/60/17
f 60/59/18 33/48/18 24/60/18
f 58/61/6 29/55/6 30/45/6
f 39/62/1 16/63/1 22/1/1
f 4/64/1 38/65/1 39/62/1
f 28/37/7 48/19/7 42/52/7
f 23/40/4 47/10/4 40/35/4
f 24/60/19 46/33/19 49/24/19
f 35/43/20 45/4/20 46/33/20
f 26/50/11 38/65/11 41/28/11
f 32/31/10 50/66/10 44/26/10
f 24/60/21 54/22/21 49/24/21
f 33/48/8 53/15/8 54/22/8
f 37/32/7 44/26/7 48/19/7
f 30/45/6 52/13/6 43/18/6
f 31/46/5 43/18/5 53/15/5
f 29/55/3 51/7/3 52/13/3
f 36/38/4 42/52/4 47/10/4
f 27/51/3 41/28/3 51/7/3
f 34/41/22 40/35/22 45/4/22
f 55/67/23 56/68/23 57/69/23
f 71/54/24 59/70/24 70/71/24
f 73/47/25 61/72/25 72/73/25
f 79/74/26 63/58/26 78/39/26
f 83/75/27 65/53/27 82/36/27
f 85/76/28 67/56/28 84/30/28
f 66/77/29 68/78/29 67/56/29
f 75/49/30 70/71/30 74/79/30
f 77/44/31 72/73/31 76/80/31
f 55/67/32 74/79/32 56/68/32
f 58/61/33 76/80/33 59/70/33
f 78/39/34 80/81/34 79/74/34
f 60/59/35 80/82/35 61/72/35
f 62/83/36 82/36/36 63/58/36
f 64/84/37 84/30/37 65/53/37
f 2/2/11 16/63/11 26/50/11
f 94/85/38 129/86/38 130/87/38
f 95/88/1 92/89/1 93/90/1
f 118/91/39 8/5/39 113/92/39
f 124/93/3 5/8/3 114/94/3
f 120/95/4 9/11/4 115/96/4
f 125/97/3 14/9/3 124/93/3
f 126/98/5 6/16/5 116/99/5
f 116/99/6 12/14/6 125/97/6
f 121/100/7 10/20/7 117/101/7
f 127/102/8 15/17/8 126/98/8
f 122/103/9 13/23/9 127/102/9
f 117/101/10 11/27/10 123/104/10
f 114/94/11 3/29/11 111/105/11
f 157/106/7 105/107/7 140/108/7
f 119/109/40 17/6/40 118/91/40
f 122/103/41 18/34/41 119/109/41
f 113/92/4 19/12/4 120/95/4
f 155/110/4 101/111/4 138/112/4
f 151/113/42 96/114/42 136/115/42
f 154/116/43 107/117/43 151/113/43
f 150/118/5 103/119/5 131/120/5
f 146/121/8 104/122/8 150/118/8
f 148/123/3 99/124/3 128/125/3
f 91/126/44 94/85/44 92/89/44
f 115/96/7 21/21/7 121/100/7
f 138/112/7 110/127/7 157/106/7
f 144/128/3 100/129/3 148/123/3
f 140/108/16 98/130/16 141/131/16
f 136/115/4 109/132/4 155/110/4
f 133/133/45 108/134/45 154/116/45
f 133/133/9 106/135/9 146/121/9
f 131/120/6 102/136/6 144/128/6
f 112/137/1 93/90/1 111/105/1
f 4/64/1 111/105/1 3/29/1
f 101/111/7 121/100/7 110/127/7
f 96/114/4 120/95/4 109/132/4
f 97/138/46 119/109/46 108/134/46
f 108/134/47 118/91/47 107/117/47
f 99/124/11 111/105/11 93/90/11
f 105/107/48 123/104/48 98/130/48
f 97/138/49 127/102/49 106/135/49
f 106/135/8 126/98/8 104/122/8
f 110/127/7 117/101/7 105/107/7
f 103/119/6 125/97/6 102/136/6
f 104/122/5 116/99/5 103/119/5
f 102/136/3 124/93/3 100/129/3
f 109/132/4 115/96/4 101/111/4
f 100/129/3 114/94/3 99/124/3
f 107/117/50 113/92/50 96/114/50
f 128/125/51 130/87/51 129/86/51
f 144/128/52 132/139/52 131/120/52
f 146/121/53 134/140/53 133/133/53
f 152/141/54 136/115/54 135/142/54
f 156/143/55 138/112/55 137/144/55
f 158/145/56 140/108/56 139/146/56
f 148/123/57 143/147/57 144/128/57
f 150/118/58 145/148/58 146/121/58
f 128/125/59 147/149/59 148/123/59
f 131/120/60 149/150/60 150/118/60
f 151/113/61 153/151/61 154/116/61
f 133/133/62 153/151/62 154/116/62
f 135/142/63 155/110/63 156/143/63
f 137/144/64 157/106/64 158/145/64
f 99/124/11 93/90/11 92/89/11
f 20/152/65 2/2/65 57/69/65
f 57/69/66 56/68/66 20/152/66
f 22/1/1 16/63/1 2/2/1
f 45/4/39 40/35/39 8/5/39
f 51/7/3 41/28/3 5/8/3
f 47/10/4 42/52/4 9/11/4
f 52/13/3 51/7/3 14/9/3
f 53/15/5 43/18/5 6/16/5
f 43/18/6 52/13/6 12/14/6
f 48/19/7 44/26/7 10/20/7
f 54/22/8 53/15/8 15/17/8
f 49/24/9 54/22/9 13/23/9
f 44/26/10 50/66/10 11/27/10
f 41/28/11 38/65/11 3/29/11
f 84/30/7 67/56/7 32/31/7
f 46/33/67 45/4/67 17/6/67
f 49/24/68 46/33/68 18/34/68
f 40/35/4 47/10/4 19/12/4
f 82/36/4 65/53/4 28/37/4
f 78/39/42 63/58/42 23/40/42
f 81/42/69 78/39/69 34/41/69
f 77/44/5 58/61/5 30/45/5
f 73/47/8 77/44/8 31/46/8
f 75/49/3 55/67/3 26/50/3
f 1/3/70 2/2/70 20/152/70
f 42/52/7 48/19/7 21/21/7
f 65/53/7 84/30/7 37/32/7
f 71/54/3 75/49/3 27/51/3
f 67/56/16 68/78/16 25/57/16
f 63/58/4 82/36/4 36/38/4
f 60/59/71 81/42/71 35/43/71
f 60/59/9 73/47/9 33/48/9
f 58/61/6 71/54/6 29/55/6
f 39/62/1 38/65/1 16/63/1
f 4/64/1 3/29/1 38/65/1
f 28/37/7 37/32/7 48/19/7
f 23/40/4 36/38/4 47/10/4
f 24/60/72 35/43/72 46/33/72
f 35/43/73 34/41/73 45/4/73
f 26/50/11 16/63/11 38/65/11
f 32/31/74 25/57/74 50/66/74
f 24/60/49 33/48/49 54/22/49
f 33/48/8 31/46/8 53/15/8
f 37/32/7 32/31/7 44/26/7
f 30/45/6 29/55/6 52/13/6
f 31/46/5 30/45/5 43/18/5
f 29/55/3 27/51/3 51/7/3
f 36/38/4 28/37/4 42/52/4
f 27/51/3 26/50/3 41/28/3
f 34/41/50 23/40/50 40/35/50
f 71/54/75 58/61/75 59/70/75
f 73/47/76 60/59/76 61/72/76
f 79/74/77 62/83/77 63/58/77
f 83/75/78 64/84/78 65/53/78
f 85/76/79 66/77/79 67/56/79
f 66/77/80 69/153/80 68/78/80
f 75/49/81 71/54/81 70/71/81
f 77/44/82 73/47/82 72/73/82
f 55/67/83 75/49/83 74/79/83
f 58/61/84 77/44/84 76/80/84
f 78/154/85 81/154/85 80/154/85
f 60/155/86 81/155/86 80/155/86
f 62/83/87 83/75/87 82/36/87
f 64/84/88 85/76/88 84/30/88
f 26/50/11 55/67/11 2/2/11
f 55/67/11 57/69/11 2/2/11
f 130/87/89 92/89/89 94/85/89
f 95/88/1 91/126/1 92/89/1
f 118/91/90 17/6/90 8/5/90
f 124/93/3 14/9/3 5/8/3
f 120/95/4 19/12/4 9/11/4
f 125/97/3 12/14/3 14/9/3
f 126/98/5 15/17/5 6/16/5
f 116/99/6 6/16/6 12/14/6
f 121/100/7 21/21/7 10/20/7
f 127/102/8 13/23/8 15/17/8
f 122/103/9 7/25/9 13/23/9
f 117/101/10 10/20/10 11/27/10
f 114/94/11 5/8/11 3/29/11
f 157/106/7 110/127/7 105/107/7
f 119/109/91 18/34/91 17/6/91
f 122/103/13 7/25/13 18/34/13
f 113/92/4 8/5/4 19/12/4
f 155/110/4 109/132/4 101/111/4
f 151/113/92 107/117/92 96/114/92
f 154/116/93 108/134/93 107/117/93
f 150/118/5 104/122/5 103/119/5
f 146/121/8 106/135/8 104/122/8
f 148/123/3 100/129/3 99/124/3
f 115/96/7 9/11/7 21/21/7
f 138/112/7 101/111/7 110/127/7
f 144/128/3 102/136/3 100/129/3
f 140/108/16 105/107/16 98/130/16
f 136/115/4 96/114/4 109/132/4
f 133/133/94 97/138/94 108/134/94
f 133/133/95 97/138/95 106/135/95
f 131/120/6 103/119/6 102/136/6
f 112/137/1 95/88/1 93/90/1
f 4/64/1 112/137/1 111/105/1
f 101/111/7 115/96/7 121/100/7
f 96/114/4 113/92/4 120/95/4
f 97/138/96 122/103/96 119/109/96
f 108/134/97 119/109/97 118/91/97
f 99/124/11 114/94/11 111/105/11
f 105/107/10 117/101/10 123/104/10
f 97/138/98 122/103/98 127/102/98
f 106/135/8 127/102/8 126/98/8
f 110/127/7 121/100/7 117/101/7
f 103/119/6 116/99/6 125/97/6
f 104/122/5 126/98/5 116/99/5
f 102/136/3 125/97/3 124/93/3
f 109/132/4 120/95/4 115/96/4
f 100/129/3 124/93/3 114/94/3
f 107/117/99 118/91/99 113/92/99
f 144/128/100 143/147/100 132/139/100
f 146/121/101 145/148/101 134/140/101
f 152/141/102 151/113/102 136/115/102
f 156/143/103 155/110/103 138/112/103
f 158/145/104 157/106/104 140/108/104
f 139/146/105 140/108/105 141/131/105
f 148/123/106 147/149/106 143/147/106
f 150/118/107 149/150/107 145/148/107
f 128/125/108 129/86/108 147/149/108
f 131/120/109 132/139/109 149/150/109
f 151/113/110 152/141/110 153/151/110
f 133/133/111 134/140/111 153/151/111
f 135/142/112 136/115/112 155/110/112
f 137/144/113 138/112/113 157/106/113
f 130/87/11 128/125/11 92/89/11
f 128/125/11 99/124/11 92/89/11
usemtl Material.006
f 162/154/114 164/154/114 163/154/114
f 89/154/114 162/154/114 161/154/114
l 88 89
l 86 90
l 90 88
l 139 142
l 159 164
l 87 89
l 160 164
